<svg width="1536" height="128" fill="none" xmlns="http://www.w3.org/2000/svg">
    <g clip-path="url(#a)" fill="#000">
        <path d="M1522.92 40.289c-.35-5.581-1.69-10.872-4.01-15.872-2.33-5-5.7-9.069-10.12-12.208-4.42-3.14-10.06-4.71-16.92-4.71-7.2 0-12.73 2.035-16.56 6.105-3.84 4.07-5.76 8.837-5.76 14.302 0 4.883 1.4 9.01 4.19 12.383 2.79 3.255 6.39 6.162 10.81 8.72 4.53 2.442 9.3 4.825 14.3 7.15 4.42 1.977 8.84 4.129 13.26 6.454 4.41 2.21 8.43 4.767 12.03 7.674 3.6 2.907 6.45 6.395 8.55 10.465 2.21 3.953 3.31 8.72 3.31 14.301 0 6.395-1.63 12.093-4.88 17.092-3.14 5-7.74 8.953-13.78 11.86-6.05 2.791-13.43 4.186-22.15 4.186-5.23 0-10.64-.756-16.22-2.267-5.58-1.512-10.52-3.721-14.83-6.628l.88 7.5h-9.07l-1.05-37.15h6.8c.58 10.232 4.13 18.023 10.64 23.371 6.51 5.233 14.36 7.849 23.55 7.849 4.53 0 8.72-.814 12.55-2.442 3.84-1.744 6.86-4.244 9.07-7.5 2.33-3.255 3.49-7.209 3.49-11.86 0-5.232-1.39-9.592-4.19-13.08-2.79-3.488-6.39-6.511-10.81-9.07-4.42-2.557-9.13-5-14.13-7.325-4.41-1.976-8.77-4.07-13.08-6.278-4.3-2.21-8.25-4.71-11.86-7.5a36.531 36.531 0 0 1-8.54-10.29c-2.1-3.953-3.14-8.72-3.14-14.302 0-3.023.52-6.278 1.57-9.767 1.04-3.488 2.85-6.802 5.4-9.941 2.68-3.256 6.28-5.872 10.82-7.848 4.65-2.093 10.52-3.14 17.61-3.14 4.42 0 9.36.64 14.83 1.919 5.58 1.162 10.75 3.488 15.52 6.976l-.7-7.5h8.9v38.37h-6.28ZM1358.83 125.4v-5.755c4.41-.233 7.44-1.221 9.07-2.965 1.62-1.861 2.5-4.36 2.61-7.5.23-3.255.35-6.918.35-10.988V22.849c0-2.326.06-4.535.17-6.628.12-2.21.24-4.186.35-5.93l-6.28.349-6.27.349V3.314h80.92l.87 30.521h-5.75c0-6.86-1.11-12.034-3.32-15.522-2.2-3.604-5.11-5.988-8.72-7.15-3.6-1.28-7.61-1.861-12.03-1.745l-12.73.349c-4.3.116-7.27 1.163-8.9 3.14-1.62 1.86-2.55 4.36-2.79 7.499-.23 3.14-.35 6.744-.35 10.813v29.999l30.35.174-1.22-15.174h7.67v36.8h-5.58c0-5.231-.75-8.952-2.26-11.161-1.4-2.21-3.61-3.547-6.63-4.012-3.02-.465-6.98-.581-11.86-.349l-10.47.524v36.626c0 3.139-.05 5.871-.17 8.197 0 2.209-.12 4.069-.35 5.581a101.2 101.2 0 0 1 5.93-.174l5.93-.349c1.98-.117 3.95-.175 5.93-.175v7.674h-44.47ZM1282.41 128.191c-11.05 0-20.52-1.86-28.43-5.581s-14.36-8.663-19.36-14.825c-4.88-6.279-8.49-13.197-10.81-20.755-2.33-7.558-3.49-15.115-3.49-22.673 0-7.325 1.22-14.708 3.66-22.15 2.44-7.558 6.16-14.476 11.16-20.755 5.12-6.278 11.46-11.336 19.01-15.173 7.68-3.837 16.63-5.756 26.86-5.756 10.7 0 19.94 1.919 27.73 5.756 7.79 3.837 14.19 8.953 19.19 15.348 5.11 6.279 8.89 13.139 11.33 20.58 2.56 7.442 3.84 14.825 3.84 22.15 0 7.209-1.22 14.592-3.66 22.15-2.44 7.441-6.22 14.36-11.34 20.755-5 6.279-11.28 11.336-18.83 15.173-7.56 3.837-16.51 5.756-26.86 5.756Zm.35-7.151c7.21 0 13.48-1.511 18.83-4.535 5.35-3.139 9.77-7.267 13.26-12.383 3.6-5.232 6.28-10.987 8.02-17.266 1.86-6.395 2.79-12.79 2.79-19.185 0-7.21-.99-14.36-2.96-21.453-1.98-7.092-4.89-13.545-8.72-19.359-3.84-5.814-8.61-10.465-14.31-13.953-5.58-3.604-11.97-5.406-19.18-5.406-7.21 0-13.55 1.57-19.01 4.709-5.35 3.139-9.83 7.325-13.43 12.557-3.49 5.116-6.16 10.872-8.02 17.267a71.124 71.124 0 0 0-2.62 19.185c0 6.395.87 13.08 2.62 20.057 1.86 6.976 4.65 13.487 8.37 19.534 3.72 6.046 8.43 10.929 14.12 14.65 5.7 3.721 12.45 5.581 20.24 5.581ZM1124.46 125.4v-5.755c4.42-.233 7.44-1.221 9.07-2.965 1.63-1.861 2.5-4.36 2.62-7.5.23-3.255.35-6.918.35-10.988V22.849c0-2.326.06-4.535.17-6.628.12-2.21.23-4.186.35-5.93l-6.28.349-6.28.349V3.314h39.25v5.755c-4.31.117-7.33 1.105-9.07 2.965-1.63 1.86-2.56 4.36-2.79 7.5-.12 3.14-.18 6.802-.18 10.988v74.821c0 3.14-.06 5.814-.17 8.023 0 2.209-.12 4.07-.35 5.581l32.61-.523c7.33-.116 12.85-2.442 16.57-6.976 3.84-4.535 5.76-11.918 5.76-22.15h5.93l-1.05 36.102h-86.51ZM1076.66 80.228c0-5.116-.69-8.778-2.09-10.987-1.4-2.21-3.6-3.547-6.63-4.012-3.02-.465-7.03-.581-12.03-.349l-12.73.523v39.94c0 3.14-.06 5.814-.18 8.023 0 2.209-.11 4.07-.35 5.581l33.32-.523c5.11-.116 9.53-.93 13.25-2.442 3.72-1.628 6.63-4.418 8.72-8.371 2.09-3.954 3.14-9.36 3.14-16.22h5.93l-1.05 34.009h-89.99v-5.755c4.42-.233 7.44-1.221 9.07-2.965 1.63-1.861 2.5-4.36 2.61-7.5.24-3.255.35-6.918.35-10.988V22.849c0-2.326.06-4.535.18-6.628.11-2.21.23-4.186.35-5.93a20150.61 20150.61 0 0 0-12.56.698V3.314h83.89l.87 30.521h-5.75c0-6.86-1.05-12.034-3.14-15.522-2.1-3.604-4.94-5.988-8.55-7.15-3.49-1.28-7.44-1.861-11.86-1.745l-15 .349c-4.3.116-7.38.93-9.24 2.442-1.86 1.511-3.03 3.779-3.49 6.802-.35 2.906-.52 6.744-.52 11.51v27.906l32.79.175-1.23-15h7.68v36.626h-5.76ZM939.55 128.191c-11.046 0-20.522-1.86-28.429-5.581-7.906-3.721-14.359-8.663-19.359-14.825-4.884-6.279-8.488-13.197-10.813-20.755-2.326-7.558-3.489-15.115-3.489-22.673 0-7.325 1.221-14.708 3.663-22.15 2.442-7.558 6.162-14.476 11.162-20.755 5.116-6.278 11.453-11.336 19.011-15.173C918.97 2.442 927.923.523 938.155.523c10.697 0 19.941 1.919 27.731 5.756 7.79 3.837 14.185 8.953 19.185 15.348 5.116 6.279 8.895 13.139 11.337 20.58 2.558 7.442 3.832 14.825 3.832 22.15 0 7.209-1.216 14.592-3.658 22.15-2.442 7.441-6.221 14.36-11.337 20.755-4.999 6.279-11.278 11.336-18.836 15.173-7.558 3.837-16.511 5.756-26.859 5.756Zm.349-7.151c7.209 0 13.488-1.511 18.836-4.535 5.349-3.139 9.767-7.267 13.255-12.383 3.605-5.232 6.279-10.987 8.023-17.266 1.86-6.395 2.791-12.79 2.791-19.185 0-7.21-.989-14.36-2.965-21.453-1.977-7.092-4.884-13.545-8.721-19.359-3.837-5.814-8.604-10.465-14.301-13.953C951.235 9.302 944.84 7.5 937.632 7.5c-7.209 0-13.546 1.57-19.011 4.709-5.349 3.139-9.825 7.325-13.43 12.557-3.488 5.116-6.162 10.872-8.022 17.267a71.32 71.32 0 0 0-2.617 19.185c0 6.395.872 13.08 2.617 20.057 1.86 6.976 4.65 13.487 8.371 19.534 3.721 6.046 8.43 10.929 14.127 14.65 5.698 3.721 12.442 5.581 20.232 5.581ZM769.513 125.4v-5.755c4.419-.233 7.442-1.221 9.069-2.965 1.628-1.86 2.5-4.36 2.617-7.5.232-3.255.348-6.918.348-10.988V22.849c0-2.326.059-4.535.175-6.628.116-2.21.232-4.186.349-5.93l-6.279.349-6.279.349V3.314c6.511-.116 13.081-.233 19.709-.349a391.24 391.24 0 0 1 20.231.174c11.278.117 20.348 1.454 27.208 4.012 6.976 2.442 12.092 5.988 15.348 10.639 3.255 4.534 4.883 10.057 4.883 16.569.117 4.534-.755 9.185-2.616 13.952-1.744 4.651-5 8.837-9.767 12.558-4.651 3.72-11.395 6.511-20.231 8.372 2.325 1.627 4.36 3.72 6.104 6.278a587.43 587.43 0 0 1 5.93 8.895l11.86 18.662c1.976 3.139 3.895 5.988 5.755 8.546 1.861 2.442 4.012 4.418 6.454 5.93 2.441 1.395 5.464 2.093 9.069 2.093v5.755h-21.976c-3.372-3.023-6.22-6.046-8.546-9.069-2.209-3.023-4.534-6.453-6.976-10.29l-11.686-18.662a1270.884 1270.884 0 0 0-5.232-8.372c-1.86-3.255-4.011-5.988-6.453-8.197-1.86.117-3.837.175-5.93.175-1.977 0-3.953-.058-5.93-.175v33.836c0 3.139-.058 5.871-.174 8.197 0 2.209-.117 4.069-.349 5.581a50.486 50.486 0 0 1 4.186-.174l4.186-.349a50.05 50.05 0 0 1 4.185-.175v7.674h-39.242Zm38.021-61.043c6.395-.233 11.977-1.279 16.744-3.14 4.883-1.86 8.72-4.825 11.511-8.894 2.79-4.07 4.186-9.418 4.186-16.046 0-4.418-.64-8.255-1.919-11.51-1.163-3.373-3.023-6.163-5.581-8.372-2.558-2.21-5.814-3.838-9.767-4.884-3.953-1.163-8.604-1.744-13.953-1.744-4.302 0-7.325.872-9.069 2.616-1.628 1.744-2.558 4.186-2.791 7.325-.116 3.023-.174 6.628-.174 10.814v33.486c1.86.117 3.605.233 5.232.35 1.744.115 3.605.115 5.581 0ZM604.642 125.4v-5.755c4.418-.233 7.441-1.221 9.069-2.965 1.628-1.861 2.5-4.36 2.616-7.5.233-3.255.349-6.918.349-10.988V22.849c0-2.326.058-4.535.174-6.628.117-2.21.233-4.186.349-5.93l-6.278.349-6.279.349V3.314h39.242v5.755c-4.302.117-7.325 1.105-9.069 2.965-1.628 1.86-2.558 4.36-2.791 7.5-.116 3.14-.174 6.802-.174 10.988v28.603h13.08l21.802-34.359c1.511-2.325 3.371-4.883 5.581-7.674 2.209-2.79 4.476-5.116 6.802-6.976a81.38 81.38 0 0 1-5.407.174 78.61 78.61 0 0 0-5.232.175V3.314h37.498v5.755c-4.884.35-9.244 1.163-13.081 2.442-3.837 1.279-7.5 3.546-10.988 6.802-3.488 3.14-7.209 7.907-11.162 14.302l-17.092 27.207c3.372 1.977 6.104 4.302 8.197 6.977a463.482 463.482 0 0 1 6.279 7.848l19.534 25.987c4.418 5.814 8.023 10.116 10.813 12.906 2.907 2.675 5.465 4.361 7.674 5.058a24.744 24.744 0 0 0 7.151 1.047v5.755h-21.278c-1.163 0-2.732-.814-4.709-2.441-1.86-1.628-3.895-3.721-6.104-6.279a672.346 672.346 0 0 1-6.802-8.372l-20.93-28.254a168.875 168.875 0 0 0-6.627-8.197c-2.209-2.675-4.36-4.651-6.453-5.93l-8.546.174v38.545c0 3.139-.058 5.871-.175 8.197 0 2.209-.116 4.069-.349 5.581l6.279-.349 6.279-.349v7.674h-39.242ZM579.14 42.207c-1.163-10.93-5-19.418-11.511-25.464-6.395-6.046-14.65-9.069-24.766-9.069-6.163 0-11.976 1.337-17.441 4.011-5.349 2.558-10.058 6.28-14.127 11.163-4.07 4.883-7.267 10.755-9.593 17.615-2.325 6.86-3.488 14.592-3.488 23.196 0 10.93 2.093 20.58 6.279 28.952 4.186 8.372 9.825 14.883 16.917 19.534 7.093 4.651 14.941 6.977 23.546 6.977 7.557 0 14.999-1.686 22.324-5.058 7.325-3.488 13.313-8.488 17.964-15l4.535 3.663c-5 6.86-10.407 12.151-16.22 15.871-5.814 3.721-11.627 6.221-17.441 7.5-5.698 1.395-10.93 2.093-15.697 2.093-8.72 0-16.743-1.57-24.068-4.709-7.209-3.14-13.488-7.5-18.837-13.081-5.232-5.697-9.302-12.267-12.208-19.708-2.791-7.558-4.186-15.697-4.186-24.417 0-8.256 1.221-16.279 3.662-24.069 2.558-7.79 6.337-14.825 11.337-21.103 5-6.28 11.279-11.279 18.836-15 7.674-3.72 16.569-5.58 26.685-5.58 6.511 0 12.674.871 18.487 2.615 5.814 1.744 11.395 4.419 16.744 8.023l-.872-9.418h9.418v40.463h-6.279ZM465.046 9.07c-4.302.116-7.325 1.104-9.069 2.964-1.628 1.86-2.558 4.36-2.791 7.5-.116 3.14-.174 6.802-.174 10.988v74.124c0 3.139-.058 5.871-.174 8.197 0 2.209-.117 4.069-.349 5.581l6.278-.349 6.279-.349v7.674h-39.242v-5.755c4.418-.233 7.442-1.221 9.069-2.965 1.628-1.861 2.5-4.36 2.616-7.5.233-3.255.349-6.918.349-10.988V22.849c0-2.326.058-4.535.175-6.628.116-2.21.232-4.186.349-5.93l-6.279.349-6.279.349V3.314h39.242v5.755ZM316.287 125.4v-5.755c4.419-.233 7.442-1.221 9.07-2.965 1.627-1.86 2.499-4.36 2.616-7.5.232-3.255.349-6.918.349-10.988V22.849c0-2.326.058-4.535.174-6.628.116-2.21.232-4.186.349-5.93l-6.279.349-6.279.349V3.314c6.512-.116 13.081-.233 19.709-.349a391.24 391.24 0 0 1 20.231.174c11.279.117 20.348 1.454 27.208 4.012 6.976 2.442 12.092 5.988 15.348 10.639 3.256 4.534 4.883 10.057 4.883 16.569.117 4.534-.755 9.185-2.616 13.952-1.744 4.651-4.999 8.837-9.767 12.558-4.651 3.72-11.394 6.511-20.231 8.372 2.325 1.627 4.36 3.72 6.104 6.278a587.43 587.43 0 0 1 5.93 8.895l11.86 18.662c1.977 3.139 3.895 5.988 5.755 8.546 1.861 2.442 4.012 4.418 6.454 5.93 2.441 1.395 5.464 2.093 9.069 2.093v5.755h-21.976c-3.372-3.023-6.22-6.046-8.546-9.069-2.209-3.023-4.534-6.453-6.976-10.29L367.04 87.379a1270.884 1270.884 0 0 0-5.232-8.372c-1.86-3.255-4.011-5.988-6.453-8.197-1.86.117-3.837.175-5.93.175-1.977 0-3.953-.058-5.93-.175v33.836c0 3.139-.058 5.871-.174 8.197 0 2.209-.117 4.069-.349 5.581a50.505 50.505 0 0 1 4.186-.174l4.186-.349a50.05 50.05 0 0 1 4.185-.175v7.674h-39.242Zm38.022-61.043c6.395-.233 11.976-1.279 16.743-3.14 4.883-1.86 8.72-4.825 11.511-8.894 2.79-4.07 4.186-9.418 4.186-16.046 0-4.418-.64-8.255-1.919-11.51-1.163-3.373-3.023-6.163-5.581-8.372-2.558-2.21-5.814-3.838-9.767-4.884-3.953-1.163-8.604-1.744-13.953-1.744-4.302 0-7.325.872-9.069 2.616-1.628 1.744-2.558 4.186-2.79 7.325-.117 3.023-.175 6.628-.175 10.814v33.486c1.861.117 3.605.233 5.232.35 1.745.115 3.605.115 5.582 0ZM296.117 40.114c-.116-6.86-.814-12.557-2.093-17.092-1.279-4.535-3.546-7.906-6.802-10.116-3.139-2.325-7.732-3.43-13.778-3.313h-14.825l-.174 95.053c0 3.139-.058 5.871-.175 8.197 0 2.209-.116 4.069-.349 5.581 2.442-.116 4.826-.233 7.151-.349l7.325-.349v7.674h-40.986v-5.755c4.419-.233 7.384-1.279 8.895-3.14 1.628-1.86 2.5-4.36 2.616-7.499.233-3.256.349-6.86.349-10.814l.174-88.425-17.964.174c-7.325 0-12.499 2.442-15.522 7.325-3.023 4.884-4.535 12.5-4.535 22.848h-6.453l1.047-36.8h101.68l1.047 36.8h-6.628ZM89.17 125.4v-5.755c3.488 0 6.162-.93 8.022-2.791 1.86-1.86 3.372-4.418 4.535-7.674a974.803 974.803 0 0 0 4.36-11.336L142.016 0h4.185l38.894 99.239c.93 2.442 1.976 5.581 3.139 9.418 1.163 3.837 1.628 7.093 1.395 9.767l5.93-.349 5.93-.349v7.674h-39.94v-5.755c4.419-.116 7.326-1.105 8.721-2.965 1.395-1.861 1.918-4.07 1.57-6.628-.349-2.558-.931-4.883-1.745-6.976l-6.104-16.394-45.346 1.046-6.105 18.662c-.814 2.79-1.569 4.999-2.267 6.627a122.4 122.4 0 0 1-2.093 5.407c2.326-.116 4.593-.233 6.802-.349 2.326-.116 4.593-.232 6.802-.349v7.674H89.169Zm32.091-45.172h40.288l-12.383-33.312a288.198 288.198 0 0 0-4.011-10.639l-3.837-10.813h-.349a333.956 333.956 0 0 1-3.663 9.767 537.59 537.59 0 0 1-3.662 9.941l-12.383 35.056ZM0 119.645c4.418-.233 7.441-1.221 9.07-2.965 1.627-1.86 2.5-4.36 2.615-7.5.233-3.255.35-6.918.35-10.988V22.849c0-2.326.057-4.535.174-6.628.116-2.21.232-4.186.348-5.93l-6.278.349L0 10.988V3.314c6.162-.116 12.5-.175 19.01-.175 6.512-.116 13.14-.174 19.883-.174 11.279 0 20.755 1.279 28.429 3.837 7.674 2.558 13.546 6.337 17.615 11.337 4.07 5 6.28 11.22 6.628 18.661.233 4.535-.465 9.302-2.093 14.302-1.511 4.883-4.418 9.534-8.72 13.953-4.186 4.302-10.116 7.79-17.79 10.464-7.674 2.674-17.5 4.012-29.475 4.012H30.87c-1.279 0-2.5-.059-3.662-.175v25.29c0 3.139-.058 5.871-.174 8.197 0 2.209-.117 4.069-.35 5.581 1.861-.116 3.663-.233 5.407-.349a78.822 78.822 0 0 1 5.233-.174c1.86-.117 3.662-.233 5.406-.349v7.848H0v-5.755Zm27.208-47.44c2.209.233 4.07.407 5.581.524h5.755c6.628 0 12.674-1.28 18.139-3.837 5.465-2.675 9.825-6.453 13.08-11.337 3.256-4.883 4.884-10.697 4.884-17.44 0-5.466-.872-10.117-2.616-13.954-1.744-3.953-4.244-7.092-7.5-9.418-3.139-2.441-6.918-4.185-11.336-5.232-4.419-1.163-9.302-1.744-14.65-1.744-4.07 0-6.919.872-8.547 2.616-1.511 1.744-2.383 4.186-2.616 7.325-.116 3.023-.174 6.628-.174 10.814v41.684Z"/>
    </g>
    <defs>
        <clipPath id="a">
            <path fill="#fff" d="M0 0h1536v128H0z"/>
        </clipPath>
    </defs>
</svg>