<svg width="928.37" height="74.709" viewBox="0 0 928.37 74.709" xmlns="http://www.w3.org/2000/svg"><g id="svgGroup" stroke-linecap="round" fill-rule="nonzero" font-size="9pt" stroke="#000" stroke-width="0" fill="#000" style="stroke:#000;stroke-width:0;fill:#000"><path d="M 668.604 73.731 L 618.164 73.731 L 618.164 0.977 L 668.652 0.977 L 668.652 15.04 L 635.4 15.04 L 635.4 30.079 L 666.016 30.079 L 666.016 43.849 L 635.4 43.849 L 635.4 59.669 L 668.604 59.669 L 668.604 73.731 Z M 869.385 49.708 L 885.938 49.708 A 13.706 13.706 0 0 0 886.427 52.569 A 10.137 10.137 0 0 0 887.866 55.616 Q 889.551 58.009 892.505 59.205 Q 895.416 60.384 899.298 60.401 A 25.996 25.996 0 0 0 899.414 60.401 Q 902.592 60.401 904.994 59.625 A 12.583 12.583 0 0 0 905.566 59.425 A 11.031 11.031 0 0 0 907.537 58.462 A 7.845 7.845 0 0 0 909.546 56.69 Q 910.938 54.933 910.938 52.589 Q 910.938 50.489 909.644 49.024 A 7.831 7.831 0 0 0 908.379 47.891 Q 907.298 47.103 905.762 46.436 A 25.512 25.512 0 0 0 903.622 45.629 Q 902.464 45.246 901.112 44.897 A 54.649 54.649 0 0 0 899.17 44.435 L 891.455 42.628 Q 883.78 40.878 878.793 37.314 A 23.332 23.332 0 0 1 876.66 35.597 A 16.135 16.135 0 0 1 871.448 25.232 A 22.661 22.661 0 0 1 871.289 22.511 A 20.948 20.948 0 0 1 872.448 15.455 A 18.926 18.926 0 0 1 874.951 10.694 A 23.107 23.107 0 0 1 882.509 4.043 A 28.649 28.649 0 0 1 884.985 2.809 A 32.542 32.542 0 0 1 893.449 0.429 A 42.661 42.661 0 0 1 899.609 0.001 A 42.168 42.168 0 0 1 906.571 0.548 Q 910.77 1.251 914.258 2.857 A 24.699 24.699 0 0 1 920.171 6.621 A 21.082 21.082 0 0 1 923.877 10.816 A 20.805 20.805 0 0 1 927.281 20.591 A 25.76 25.76 0 0 1 927.393 22.657 L 910.84 22.657 A 9.528 9.528 0 0 0 910.121 19.683 A 7.868 7.868 0 0 0 907.617 16.505 Q 905.327 14.758 901.587 14.4 A 21.274 21.274 0 0 0 899.561 14.308 A 21.484 21.484 0 0 0 897.054 14.445 Q 895.798 14.593 894.73 14.9 A 11.114 11.114 0 0 0 893.799 15.211 A 9.834 9.834 0 0 0 892.147 16.021 Q 890.997 16.734 890.283 17.701 A 5.963 5.963 0 0 0 889.111 21.339 A 6.332 6.332 0 0 0 889.391 23.259 A 5.289 5.289 0 0 0 890.43 25.123 Q 891.617 26.509 893.716 27.478 A 14.743 14.743 0 0 0 894.189 27.686 A 29.043 29.043 0 0 0 896.821 28.637 Q 898.15 29.05 899.652 29.398 A 47.098 47.098 0 0 0 899.854 29.444 L 906.152 30.909 A 49.214 49.214 0 0 1 911.432 32.33 A 38.163 38.163 0 0 1 915.552 33.961 A 29.39 29.39 0 0 1 919.685 36.297 A 23.45 23.45 0 0 1 922.534 38.575 A 18.162 18.162 0 0 1 926.88 44.776 A 18.771 18.771 0 0 1 928.224 50.003 A 23.278 23.278 0 0 1 928.369 52.638 A 23.079 23.079 0 0 1 927.613 58.668 A 18.589 18.589 0 0 1 924.927 64.478 A 20.313 20.313 0 0 1 918.44 70.405 A 26.395 26.395 0 0 1 915.063 72.071 Q 909.335 74.423 901.529 74.677 A 59.065 59.065 0 0 1 899.609 74.708 A 51.081 51.081 0 0 1 892.111 74.185 Q 887.579 73.512 883.789 71.974 A 23.948 23.948 0 0 1 876.993 67.865 A 21.491 21.491 0 0 1 873.291 63.673 Q 869.631 58.255 869.395 50.153 A 38.03 38.03 0 0 1 869.385 49.708 Z M 80.957 73.731 L 61.816 73.731 L 86.084 0.977 L 109.18 0.977 L 134.18 73.731 L 114.844 73.731 L 104.736 41.944 A 338.803 338.803 0 0 1 101.46 30.528 A 395.967 395.967 0 0 1 100.024 25.025 A 1352.39 1352.39 0 0 1 96.032 8.841 A 1494.88 1494.88 0 0 1 95.459 6.446 L 99.316 6.446 A 12856.736 12856.736 0 0 1 96.103 20.55 A 11465.287 11465.287 0 0 1 95.068 25.074 A 320.408 320.408 0 0 1 92.133 36.898 A 271.502 271.502 0 0 1 90.723 41.944 L 80.957 73.731 Z M 17.236 73.731 L 0 73.731 L 0 0.977 L 29.785 0.977 A 35.714 35.714 0 0 1 36.533 1.585 A 26.175 26.175 0 0 1 43.945 4.151 A 22.298 22.298 0 0 1 53.101 12.989 A 24.629 24.629 0 0 1 56.017 21.847 A 31.508 31.508 0 0 1 56.299 26.124 A 29.214 29.214 0 0 1 55.58 32.744 A 22.895 22.895 0 0 1 53.027 39.21 A 22.473 22.473 0 0 1 43.89 47.803 A 26.82 26.82 0 0 1 43.701 47.901 A 27.18 27.18 0 0 1 36.164 50.428 A 37.517 37.517 0 0 1 29.297 51.026 L 10.84 51.026 L 10.84 37.403 L 26.172 37.403 A 19.214 19.214 0 0 0 29.137 37.187 Q 31.293 36.85 32.959 35.987 A 9.911 9.911 0 0 0 35.784 33.844 A 9.16 9.16 0 0 0 37.061 32.032 A 11.313 11.313 0 0 0 38.266 28.342 A 14.715 14.715 0 0 0 38.428 26.124 A 14.386 14.386 0 0 0 38.137 23.165 A 10.857 10.857 0 0 0 37.061 20.191 A 9.076 9.076 0 0 0 33.378 16.542 A 11.192 11.192 0 0 0 32.935 16.31 A 12.341 12.341 0 0 0 29.958 15.306 Q 28.595 15.022 27.021 14.96 A 22.766 22.766 0 0 0 26.123 14.942 L 17.236 14.942 L 17.236 73.731 Z M 227.051 73.731 L 209.814 73.731 L 209.814 0.977 L 239.6 0.977 A 38.296 38.296 0 0 1 246.347 1.543 Q 250.409 2.27 253.76 3.932 A 21.98 21.98 0 0 1 260.647 9.159 A 20.98 20.98 0 0 1 262.915 12.306 A 22.751 22.751 0 0 1 265.735 20.281 A 30.181 30.181 0 0 1 266.113 25.147 Q 266.113 32.618 262.842 37.916 A 20.44 20.44 0 0 1 254.262 45.596 A 24.838 24.838 0 0 1 253.516 45.948 A 29.596 29.596 0 0 1 246.492 48.072 Q 243.326 48.635 239.725 48.679 A 50.224 50.224 0 0 1 239.111 48.683 L 220.117 48.683 L 220.117 35.06 L 235.986 35.06 A 25.328 25.328 0 0 0 238.837 34.908 Q 241.055 34.657 242.749 33.985 A 9.304 9.304 0 0 0 245.065 32.681 A 7.726 7.726 0 0 0 246.851 30.714 Q 248.118 28.713 248.231 25.74 A 15.573 15.573 0 0 0 248.242 25.147 A 13.906 13.906 0 0 0 248.046 22.749 Q 247.802 21.353 247.251 20.214 A 7.978 7.978 0 0 0 246.851 19.483 A 8.253 8.253 0 0 0 243.78 16.601 A 10.595 10.595 0 0 0 242.725 16.09 A 13.501 13.501 0 0 0 240.08 15.305 Q 238.799 15.056 237.322 14.978 A 26.267 26.267 0 0 0 235.938 14.942 L 227.051 14.942 L 227.051 73.731 Z M 491.895 73.731 L 474.658 73.731 L 474.658 0.977 L 504.443 0.977 A 38.296 38.296 0 0 1 511.191 1.543 Q 515.253 2.27 518.604 3.932 A 21.98 21.98 0 0 1 525.49 9.159 A 20.98 20.98 0 0 1 527.759 12.306 A 22.751 22.751 0 0 1 530.579 20.281 A 30.181 30.181 0 0 1 530.957 25.147 Q 530.957 32.618 527.686 37.916 A 20.44 20.44 0 0 1 519.105 45.596 A 24.838 24.838 0 0 1 518.359 45.948 A 29.596 29.596 0 0 1 511.335 48.072 Q 508.17 48.635 504.569 48.679 A 50.224 50.224 0 0 1 503.955 48.683 L 484.961 48.683 L 484.961 35.06 L 500.83 35.06 A 25.328 25.328 0 0 0 503.681 34.908 Q 505.899 34.657 507.593 33.985 A 9.304 9.304 0 0 0 509.909 32.681 A 7.726 7.726 0 0 0 511.694 30.714 Q 512.962 28.713 513.075 25.74 A 15.573 15.573 0 0 0 513.086 25.147 A 13.906 13.906 0 0 0 512.89 22.749 Q 512.646 21.353 512.095 20.214 A 7.978 7.978 0 0 0 511.694 19.483 A 8.253 8.253 0 0 0 508.624 16.601 A 10.595 10.595 0 0 0 507.568 16.09 A 13.501 13.501 0 0 0 504.923 15.305 Q 503.643 15.056 502.165 14.978 A 26.267 26.267 0 0 0 500.781 14.942 L 491.895 14.942 L 491.895 73.731 Z M 369.482 26.661 L 352.051 26.661 A 15.893 15.893 0 0 0 351.229 23.56 A 13.44 13.44 0 0 0 350.439 21.852 A 12.516 12.516 0 0 0 347.437 18.214 Q 345.605 16.7 343.164 15.919 A 16.376 16.376 0 0 0 339.749 15.23 A 20.213 20.213 0 0 0 337.793 15.138 A 18.037 18.037 0 0 0 332.975 15.756 A 14.725 14.725 0 0 0 328.589 17.774 A 15.723 15.723 0 0 0 323.862 22.898 A 20.359 20.359 0 0 0 322.632 25.367 A 25.001 25.001 0 0 0 321.142 30.48 Q 320.685 32.95 320.585 35.786 A 45.849 45.849 0 0 0 320.557 37.403 A 41.64 41.64 0 0 0 320.855 42.534 Q 321.353 46.537 322.681 49.635 A 19.055 19.055 0 0 0 324.911 53.56 A 14.513 14.513 0 0 0 328.638 57.081 Q 332.471 59.571 337.695 59.571 A 19.126 19.126 0 0 0 340.961 59.303 A 15.676 15.676 0 0 0 343.066 58.79 A 13.267 13.267 0 0 0 346.523 57.122 A 12.251 12.251 0 0 0 347.363 56.495 A 13.022 13.022 0 0 0 350.439 52.857 A 13.584 13.584 0 0 0 351.831 49.355 A 16.239 16.239 0 0 0 352.1 48.048 L 369.531 48.048 A 27.962 27.962 0 0 1 367.096 56.905 A 31.884 31.884 0 0 1 366.748 57.643 A 29.557 29.557 0 0 1 361.247 65.377 A 33.932 33.932 0 0 1 360.376 66.236 Q 356.299 70.118 350.537 72.413 A 31.683 31.683 0 0 1 343.215 74.315 A 41.953 41.953 0 0 1 337.354 74.708 A 37.997 37.997 0 0 1 326.548 73.216 A 33.179 33.179 0 0 1 319.751 70.362 A 30.814 30.814 0 0 1 308.024 58.695 A 36.975 36.975 0 0 1 307.446 57.667 A 36.078 36.078 0 0 1 303.857 47.469 Q 302.93 42.802 302.93 37.403 A 52.761 52.761 0 0 1 303.683 28.248 Q 304.784 22 307.495 17.042 A 32.465 32.465 0 0 1 314.99 7.718 A 30.421 30.421 0 0 1 319.873 4.347 A 34.729 34.729 0 0 1 334.966 0.069 A 41.545 41.545 0 0 1 337.354 0.001 A 41.536 41.536 0 0 1 345.09 0.697 A 35.193 35.193 0 0 1 349.365 1.783 A 30.655 30.655 0 0 1 357.772 5.955 A 28.719 28.719 0 0 1 359.131 6.983 A 27.025 27.025 0 0 1 366.04 15.357 A 30.03 30.03 0 0 1 368.811 22.83 A 37.051 37.051 0 0 1 369.482 26.661 Z M 830.225 73.731 L 812.988 73.731 L 812.988 0.977 L 862.451 0.977 L 862.451 15.04 L 830.225 15.04 L 830.225 33.497 L 859.277 33.497 L 859.277 47.267 L 830.225 47.267 L 830.225 73.731 Z M 161.719 15.04 L 139.697 15.04 L 139.697 0.977 L 200.928 0.977 L 200.928 15.04 L 178.906 15.04 L 178.906 73.731 L 161.719 73.731 L 161.719 15.04 Z M 726.807 73.731 L 679.15 73.731 L 679.15 0.977 L 696.387 0.977 L 696.387 59.669 L 726.807 59.669 L 726.807 73.731 Z M 562.919 73.176 A 33.568 33.568 0 0 1 556.226 70.362 A 31.254 31.254 0 0 1 544.236 58.441 A 37.496 37.496 0 0 1 543.799 57.667 Q 539.339 49.554 539.213 38.075 A 61.073 61.073 0 0 1 539.209 37.403 A 52.487 52.487 0 0 1 539.966 28.248 Q 540.931 22.805 543.123 18.342 A 31.787 31.787 0 0 1 543.799 17.042 A 32.524 32.524 0 0 1 551.426 7.635 A 30.575 30.575 0 0 1 556.226 4.347 A 34.91 34.91 0 0 1 570.84 0.108 A 42.348 42.348 0 0 1 573.877 0.001 A 37.718 37.718 0 0 1 585.197 1.656 A 33.611 33.611 0 0 1 591.479 4.347 A 31.1 31.1 0 0 1 603.447 16.268 A 37.27 37.27 0 0 1 603.882 17.042 A 35.634 35.634 0 0 1 607.444 26.947 Q 608.322 31.17 608.432 36.008 A 61.54 61.54 0 0 1 608.447 37.403 A 52.435 52.435 0 0 1 607.694 46.527 Q 606.593 52.758 603.882 57.716 A 32.232 32.232 0 0 1 596.376 67.029 A 30.265 30.265 0 0 1 591.479 70.387 Q 583.643 74.708 573.877 74.708 A 38.111 38.111 0 0 1 562.919 73.176 Z M 573.877 59.571 A 18.353 18.353 0 0 0 578.499 59.013 A 14.576 14.576 0 0 0 582.959 57.032 A 14.881 14.881 0 0 0 587.365 52.399 A 19.837 19.837 0 0 0 588.818 49.537 A 25.008 25.008 0 0 0 590.256 44.589 Q 590.711 42.169 590.828 39.383 A 47.056 47.056 0 0 0 590.869 37.403 A 42.429 42.429 0 0 0 590.556 32.1 Q 590.213 29.38 589.493 27.072 A 22.571 22.571 0 0 0 588.818 25.196 A 18.932 18.932 0 0 0 586.643 21.245 A 14.473 14.473 0 0 0 582.959 17.677 A 15.008 15.008 0 0 0 576.727 15.338 A 19.602 19.602 0 0 0 573.877 15.138 A 18.474 18.474 0 0 0 569.292 15.682 A 14.502 14.502 0 0 0 564.746 17.701 A 15.046 15.046 0 0 0 560.34 22.357 A 19.95 19.95 0 0 0 558.887 25.221 A 24.978 24.978 0 0 0 557.449 30.178 Q 556.836 33.451 556.836 37.403 A 41.806 41.806 0 0 0 557.149 42.668 Q 557.637 46.507 558.887 49.513 A 18.838 18.838 0 0 0 561.151 53.556 A 14.715 14.715 0 0 0 564.746 57.008 A 14.92 14.92 0 0 0 570.926 59.357 A 19.661 19.661 0 0 0 573.877 59.571 Z M 757.744 73.176 A 33.568 33.568 0 0 1 751.05 70.362 A 31.254 31.254 0 0 1 739.06 58.441 A 37.496 37.496 0 0 1 738.623 57.667 Q 734.163 49.554 734.037 38.075 A 61.073 61.073 0 0 1 734.033 37.403 A 52.487 52.487 0 0 1 734.791 28.248 Q 735.755 22.805 737.947 18.342 A 31.787 31.787 0 0 1 738.623 17.042 A 32.524 32.524 0 0 1 746.25 7.635 A 30.575 30.575 0 0 1 751.05 4.347 A 34.91 34.91 0 0 1 765.664 0.108 A 42.348 42.348 0 0 1 768.701 0.001 A 37.718 37.718 0 0 1 780.021 1.656 A 33.611 33.611 0 0 1 786.304 4.347 A 31.1 31.1 0 0 1 798.271 16.268 A 37.27 37.27 0 0 1 798.706 17.042 A 35.634 35.634 0 0 1 802.268 26.947 Q 803.146 31.17 803.256 36.008 A 61.54 61.54 0 0 1 803.271 37.403 A 52.435 52.435 0 0 1 802.518 46.527 Q 801.417 52.758 798.706 57.716 A 32.232 32.232 0 0 1 791.2 67.029 A 30.265 30.265 0 0 1 786.304 70.387 Q 778.467 74.708 768.701 74.708 A 38.111 38.111 0 0 1 757.744 73.176 Z M 768.701 59.571 A 18.353 18.353 0 0 0 773.323 59.013 A 14.576 14.576 0 0 0 777.783 57.032 A 14.881 14.881 0 0 0 782.189 52.399 A 19.837 19.837 0 0 0 783.643 49.537 A 25.008 25.008 0 0 0 785.08 44.589 Q 785.535 42.169 785.653 39.383 A 47.056 47.056 0 0 0 785.693 37.403 A 42.429 42.429 0 0 0 785.38 32.1 Q 785.037 29.38 784.317 27.072 A 22.571 22.571 0 0 0 783.643 25.196 A 18.932 18.932 0 0 0 781.468 21.245 A 14.473 14.473 0 0 0 777.783 17.677 A 15.008 15.008 0 0 0 771.552 15.338 A 19.602 19.602 0 0 0 768.701 15.138 A 18.474 18.474 0 0 0 764.116 15.682 A 14.502 14.502 0 0 0 759.57 17.701 A 15.046 15.046 0 0 0 755.164 22.357 A 19.95 19.95 0 0 0 753.711 25.221 A 24.978 24.978 0 0 0 752.273 30.178 Q 751.66 33.451 751.66 37.403 A 41.806 41.806 0 0 0 751.973 42.668 Q 752.461 46.507 753.711 49.513 A 18.838 18.838 0 0 0 755.975 53.556 A 14.715 14.715 0 0 0 759.57 57.008 A 14.92 14.92 0 0 0 765.751 59.357 A 19.661 19.661 0 0 0 768.701 59.571 Z M 396.191 73.731 L 378.955 73.731 L 378.955 0.977 L 396.191 0.977 L 396.191 18.849 L 395.85 38.526 L 396.191 46.925 L 396.191 73.731 Z M 276.025 0.977 L 293.262 0.977 L 293.262 73.731 L 276.025 73.731 L 276.025 0.977 Z M 411.572 36.817 L 391.895 59.034 L 391.895 43.995 A 147.803 147.803 0 0 1 393.982 39.881 A 117.866 117.866 0 0 1 396.045 36.134 A 88.379 88.379 0 0 1 399.871 30.084 A 98.903 98.903 0 0 1 400.659 28.956 A 153.516 153.516 0 0 1 403.094 25.626 Q 404.782 23.377 406.787 20.851 L 422.998 0.977 L 443.701 0.977 L 413.135 37.452 L 411.572 36.817 Z M 444.727 73.731 L 424.463 73.731 L 404.785 42.628 L 415.674 29.884 L 444.727 73.731 Z M 268.652 73.731 L 249.756 73.731 L 232.031 40.479 L 250.488 40.479 L 268.652 73.731 Z M 533.496 73.731 L 514.6 73.731 L 496.875 40.479 L 515.332 40.479 L 533.496 73.731 Z M 117.725 58.253 L 78.32 58.253 L 78.32 45.069 L 117.725 45.069 L 117.725 58.253 Z" vector-effect="non-scaling-stroke"/></g></svg>