<?xml version="1.0" standalone="no"?>
<!DOCTYPE svg PUBLIC "-//W3C//DTD SVG 20010904//EN"
 "http://www.w3.org/TR/2001/REC-SVG-20010904/DTD/svg10.dtd">
<svg version="1.0" xmlns="http://www.w3.org/2000/svg"
 width="700.000000pt" height="700.000000pt" viewBox="0 0 700.000000 700.000000"
 preserveAspectRatio="xMidYMid meet">
<metadata>
Created by potrace 1.14, written by Peter Selinger 2001-2017
</metadata>
<g transform="translate(0.000000,700.000000) scale(0.100000,-0.100000)"
fill="#000000" stroke="none">
<path d="M2435 5103 c-191 -16 -347 -120 -430 -288 -101 -202 -63 -430 98
-590 132 -130 315 -183 482 -140 237 61 396 262 396 500 -1 79 -3 97 -27 168
-72 217 -296 368 -519 350z"/>
<path d="M4435 5094 c-215 -50 -366 -202 -411 -415 -6 -32 -6 -146 1 -184 35
-187 175 -343 360 -400 267 -83 549 64 638 331 86 258 -50 547 -304 643 -83
32 -207 43 -284 25z"/>
<path d="M1849 3364 c-115 -35 -243 -217 -240 -342 1 -96 56 -312 113 -451 68
-165 183 -359 294 -496 51 -62 209 -225 279 -285 61 -54 245 -186 300 -216 11
-6 45 -24 75 -41 107 -60 330 -147 429 -168 9 -2 45 -10 81 -18 187 -44 471
-42 658 3 27 6 56 13 63 14 43 8 176 53 257 87 248 106 462 250 657 444 212
210 358 422 459 667 37 89 90 265 101 333 3 22 10 62 15 90 22 134 -110 340
-242 380 -200 59 -414 -72 -434 -267 -3 -29 -12 -66 -19 -83 -7 -16 -15 -46
-18 -65 -14 -103 -99 -300 -182 -425 -57 -86 -227 -253 -319 -315 -203 -135
-421 -202 -661 -204 -220 -1 -371 33 -560 127 -61 30 -182 109 -221 143 -12
11 -36 33 -55 49 -109 96 -236 281 -296 430 -35 88 -82 252 -93 330 -21 141
-98 234 -229 275 -73 23 -146 25 -212 4z"/>
</g>
</svg>
