<?xml version="1.0" standalone="no"?>
<!DOCTYPE svg PUBLIC "-//W3C//DTD SVG 20010904//EN"
 "http://www.w3.org/TR/2001/REC-SVG-20010904/DTD/svg10.dtd">
<svg version="1.0" xmlns="http://www.w3.org/2000/svg"
 width="750.000000pt" height="750.000000pt" viewBox="0 0 750.000000 750.000000"
 preserveAspectRatio="xMidYMid meet">
<metadata>
Created by potrace 1.11, written by Peter Selinger 2001-2013
</metadata>
<g transform="translate(0.000000,750.000000) scale(0.100000,-0.100000)"
fill="#000000" stroke="none">
<path d="M3579 6216 c-2 -2 -35 -6 -74 -10 -38 -3 -97 -11 -130 -17 -33 -5
-69 -12 -80 -14 -50 -8 -227 -57 -295 -80 -329 -115 -615 -293 -875 -544 -416
-403 -670 -936 -733 -1536 -19 -185 -6 -504 29 -700 130 -735 610 -1394 1262
-1734 252 -130 537 -217 829 -251 76 -8 464 -6 508 3 14 3 59 11 100 17 269
43 536 137 776 276 196 113 322 209 503 384 50 49 171 187 206 235 16 22 32
42 35 45 29 26 168 258 228 381 88 182 180 459 206 619 3 19 10 58 15 85 33
173 36 522 6 755 -7 52 -45 240 -55 275 -106 352 -189 532 -358 780 -213 313
-504 577 -829 753 -187 101 -423 190 -606 227 -10 2 -26 7 -35 9 -61 20 -255
38 -428 41 -111 2 -203 3 -205 1z m476 -269 c107 -19 144 -26 167 -33 10 -3
29 -7 43 -10 51 -9 192 -57 285 -97 262 -112 475 -259 682 -468 328 -333 540
-759 614 -1234 21 -141 26 -453 8 -595 -55 -446 -225 -849 -497 -1175 -65 -78
-229 -241 -287 -285 -25 -19 -49 -40 -55 -46 -20 -22 -172 -122 -261 -172
-222 -124 -505 -217 -754 -249 -129 -16 -466 -9 -570 12 -14 3 -52 9 -84 15
-122 20 -339 93 -485 163 -228 109 -402 235 -596 432 -103 104 -255 291 -255
313 0 6 -4 12 -8 14 -19 7 -192 326 -192 352 0 3 -9 25 -19 49 -27 57 -76 213
-101 317 -64 270 -75 618 -29 890 21 129 77 342 108 415 5 11 24 56 42 100
107 258 269 498 474 700 158 156 226 210 400 315 120 73 226 125 357 174 108
40 308 92 396 102 31 3 75 10 97 14 69 12 423 4 520 -13z"/>
<path d="M3170 4932 l-26 -3 0 -1174 0 -1175 158 0 158 0 1 138 c0 75 1 288 2
472 l2 335 255 1 c247 1 293 4 403 24 285 54 475 235 523 498 26 142 17 333
-22 449 -91 271 -337 424 -697 433 -153 3 -730 5 -757 2z m833 -277 c130 -27
227 -101 279 -211 53 -114 58 -286 11 -406 -46 -119 -138 -196 -278 -233 -55
-14 -224 -20 -497 -16 l-57 1 0 440 0 440 237 0 c167 0 257 -5 305 -15z"/>
</g>
</svg>
